<svg width="30" height="42" viewBox="0 0 30 42" fill="none" xmlns="http://www.w3.org/2000/svg">
<path fill-rule="evenodd" clip-rule="evenodd" d="M14.9795 31.3279L30 23.5056L14.9795 41.5085V31.3279ZM17.2138 32.3475V35.6009L22.0297 29.8412L17.2138 32.3475Z" fill="#5A9DED"/>
<path fill-rule="evenodd" clip-rule="evenodd" d="M16.5105 15.084L27.6069 20.2911L26.5085 21.8945L15.4121 16.6874L16.5105 15.084Z" fill="#D895D3"/>
<path fill-rule="evenodd" clip-rule="evenodd" d="M14.9795 0L29.9624 21.373L14.9795 29.2108V0ZM17.1856 6.84155V25.8874L26.9677 20.7737L17.1856 6.84155Z" fill="#FF9C92"/>
<path fill-rule="evenodd" clip-rule="evenodd" d="M15.0299 31.3279L0 23.5056L15.0299 41.5085V31.3279ZM12.7956 32.3475V35.6009L7.97963 29.8412L12.7956 32.3475Z" fill="#53D3E0"/>
<path fill-rule="evenodd" clip-rule="evenodd" d="M13.0212 15.2552L1.9248 20.4623L3.02318 22.0657L14.1196 16.8586L13.0212 15.2552Z" fill="#A6E275"/>
<path fill-rule="evenodd" clip-rule="evenodd" d="M14.9829 0L0 21.373L14.9829 29.2031V0ZM12.7674 6.84155V25.8874L2.98532 20.7737L12.7674 6.84155Z" fill="#FFE94D"/>
</svg>
