<svg width="54" height="53" viewBox="0 0 54 53" fill="none" xmlns="http://www.w3.org/2000/svg">
<g id="Layer 2">
<g id="Layer 1">
<path id="Vector" d="M27 52.381C41.9117 52.381 54 40.6551 54 26.1905C54 11.7259 41.9117 0 27 0C12.0883 0 0 11.7259 0 26.1905C0 40.6551 12.0883 52.381 27 52.381Z" fill="#100F0F"/>
<g id="Group">
<path id="Vector_2" fill-rule="evenodd" clip-rule="evenodd" d="M29.025 21.1161L35.1 17.6786V24.5536L29.025 21.1161ZM35.1 35.8482L27 40.4315L18.9 35.8482V27.8274L27 32.4107L35.1 27.8274V35.8482ZM18.9 17.6786L24.975 21.1161L18.9 24.5536V17.6786ZM28.0125 22.753L34.0875 26.1905L28.0125 29.628V22.753ZM25.9875 29.628L19.9125 26.1905L25.9875 22.753V29.628ZM34.0875 16.0417L27 19.9702L19.9125 16.0417L27 11.9494L34.0875 16.0417ZM16.875 15.3869V36.8304L27 42.3958L37.125 36.8304V15.3869L27 9.82143L16.875 15.3869Z" fill="white"/>
</g>
</g>
</g>
</svg>
